<svg xmlns="http://www.w3.org/2000/svg" width="600" height="400" viewBox="0 0 600 400"><rect width="100%" height="100%" fill="#718096"/><path fill="#e2e8f0" d="M178.545 211.12q1.12 0 1.99.87l5.4 5.86q-4.49 5.56-11.04 8.52t-15.73 2.96q-8.21 0-14.77-2.81-6.55-2.8-11.19-7.8t-7.12-11.94q-2.47-6.93-2.47-15.14 0-8.32 2.65-15.23t7.47-11.91q4.82-4.99 11.5-7.77t14.79-2.78q8.06 0 14.31 2.65t10.63 6.94l-4.59 6.37q-.41.61-1.04 1.07-.64.46-1.76.46-.77 0-1.58-.43-.82-.44-1.79-1.07-.97-.64-2.24-1.41-1.28-.76-2.96-1.4t-3.9-1.07-5.13-.43q-4.95 0-9.05 1.76-4.11 1.76-7.06 5.1-2.96 3.34-4.59 8.16-1.64 4.82-1.64 10.99 0 6.22 1.76 11.06 1.76 4.85 4.77 8.16 3.01 3.32 7.09 5.08t8.77 1.76q2.81 0 5.08-.31 2.27-.3 4.18-.97 1.91-.66 3.62-1.71 1.71-1.04 3.39-2.57.51-.46 1.07-.74t1.18-.28m42.48 3.87v-8.82q-5.46.26-9.18.95-3.72.68-5.97 1.75-2.24 1.08-3.21 2.5-.97 1.43-.97 3.11 0 3.32 1.96 4.75 1.97 1.43 5.13 1.43 3.88 0 6.71-1.41 2.83-1.4 5.53-4.26m-26.62-27.48-2.25-4.03q9.03-8.27 21.73-8.27 4.59 0 8.21 1.51 3.62 1.5 6.12 4.18t3.8 6.4q1.3 3.73 1.3 8.16v33.05h-5.71q-1.79 0-2.76-.54-.96-.53-1.53-2.16l-1.12-3.78q-1.99 1.79-3.87 3.14-1.89 1.35-3.93 2.27t-4.36 1.4q-2.32.49-5.13.49-3.31 0-6.12-.9-2.8-.89-4.84-2.67-2.04-1.79-3.16-4.44-1.13-2.65-1.13-6.17 0-1.99.67-3.95.66-1.97 2.16-3.75 1.51-1.79 3.91-3.37 2.39-1.58 5.89-2.75 3.49-1.18 8.13-1.92t10.61-.89v-3.06q0-5.25-2.24-7.78-2.25-2.52-6.48-2.52-3.06 0-5.08.71-2.01.72-3.54 1.61t-2.78 1.61q-1.25.71-2.78.71-1.33 0-2.24-.69-.92-.69-1.48-1.6m87.31-2.76v35.14q7.6-.56 11.75-5.1 4.16-4.54 4.16-12.44 0-7.91-4.16-12.47-4.15-4.57-11.75-5.13m-11.02 35.14v-35.14q-3.77.31-6.7 1.61-2.94 1.3-5 3.54-2.07 2.25-3.14 5.38-1.07 3.14-1.07 7.07 0 3.92 1.07 7.06t3.14 5.36q2.06 2.21 5 3.51 2.93 1.3 6.7 1.61m11.43-65.13v20.66q6.27.36 11.45 2.37 5.17 2.01 8.87 5.48t5.74 8.26q2.04 4.8 2.04 10.71 0 5.97-2.04 10.79t-5.74 8.29-8.87 5.51q-5.18 2.04-11.45 2.39v16.83h-11.83v-16.83q-6.28-.35-11.45-2.39-5.18-2.04-8.88-5.51t-5.74-8.29-2.04-10.79q0-5.91 2.04-10.71 2.04-4.79 5.74-8.26t8.88-5.48q5.17-2.01 11.45-2.37v-20.66zm65.23 60.23v-8.82q-5.46.26-9.18.95-3.73.68-5.97 1.75-2.24 1.08-3.21 2.5-.97 1.43-.97 3.11 0 3.32 1.96 4.75t5.13 1.43q3.87 0 6.7-1.41 2.83-1.4 5.54-4.26m-26.63-27.48-2.24-4.03q9.03-8.27 21.73-8.27 4.59 0 8.21 1.51 3.62 1.5 6.12 4.18t3.8 6.4q1.3 3.73 1.3 8.16v33.05h-5.71q-1.79 0-2.76-.54-.97-.53-1.53-2.16l-1.12-3.78q-1.99 1.79-3.88 3.14-1.88 1.35-3.92 2.27t-4.36 1.4q-2.32.49-5.13.49-3.31 0-6.12-.9-2.8-.89-4.84-2.67-2.04-1.79-3.17-4.44-1.12-2.65-1.12-6.17 0-1.99.66-3.95.67-1.97 2.17-3.75 1.51-1.79 3.9-3.37 2.4-1.58 5.89-2.75 3.5-1.18 8.14-1.92t10.61-.89v-3.06q0-5.25-2.25-7.78-2.24-2.52-6.47-2.52-3.06 0-5.08.71-2.01.72-3.54 1.61t-2.78 1.61q-1.25.71-2.78.71-1.33 0-2.25-.69-.91-.69-1.48-1.6m63.35 3.97v23.46q2.14 2.6 4.66 3.68 2.53 1.07 5.49 1.07 2.85 0 5.15-1.07 2.29-1.08 3.9-3.27 1.6-2.19 2.47-5.53t.87-7.88q0-4.59-.74-7.78t-2.12-5.18q-1.37-1.98-3.34-2.9-1.96-.92-4.46-.92-3.93 0-6.68 1.66-2.76 1.65-5.2 4.66m-1.69-13 1.02 4.84q3.22-3.62 7.3-5.86 4.08-2.25 9.58-2.25 4.29 0 7.83 1.79 3.55 1.78 6.12 5.18 2.58 3.39 3.98 8.36t1.4 11.4q0 5.86-1.58 10.86t-4.51 8.67-7.09 5.74-9.31 2.07q-4.38 0-7.49-1.36-3.12-1.35-5.56-3.74v21.42h-12.6v-69.42h7.7q2.45 0 3.21 2.3m86.35-2.3h7.65v52.33h-12.6v-30.55q0-1.17.13-2.57.12-1.41.33-2.84-1.02 2.35-2.25 4.14-.1.1-1.02 1.4-.91 1.3-2.37 3.34-1.45 2.04-3.29 4.61-1.83 2.58-3.72 5.23-4.44 6.27-10.05 14.18-.71 1.07-1.86 2.09t-2.62 1.02h-7.71v-52.33h12.6v30.55q0 1.18-.13 2.58-.12 1.4-.33 2.83 1.12-2.5 2.25-4.13.05-.1.97-1.38l2.37-3.31q1.45-2.04 3.29-4.62 1.83-2.57 3.72-5.28 4.44-6.27 10.1-14.18.71-1.12 1.88-2.11 1.18-1 2.66-1"/></svg>