<svg xmlns="http://www.w3.org/2000/svg" width="600" height="400" viewBox="0 0 600 400"><rect width="100%" height="100%" fill="#4a5568"/><path fill="#e2e8f0" d="M151.22 239.39h18.33q5.85 0 9.78-1.29 3.94-1.28 6.36-3.55 2.42-2.26 3.43-5.3 1.02-3.04 1.02-6.55 0-3.82-1.02-6.94-1.01-3.12-3.43-5.27-2.42-2.14-6.32-3.31t-9.75-1.17h-18.4zm0-49.76h18.4q11 0 18.84 2.41 7.84 2.42 12.79 6.6 4.96 4.17 7.3 9.82 2.34 5.66 2.34 12.13 0 7.96-2.77 14.43-2.77 6.48-8.08 11.12-5.3 4.64-12.98 7.13-7.69 2.5-17.51 2.5h-39.32V142.98h76.52v16.23h-55.53zm116.45 45.47v-13.49q-8.35.39-14.04 1.44t-9.13 2.69q-3.43 1.64-4.91 3.82-1.48 2.19-1.48 4.76 0 5.07 3 7.25 3 2.19 7.84 2.19 5.93 0 10.26-2.15 4.33-2.14 8.46-6.51m-40.72-42.04-3.43-6.16q13.81-12.64 33.23-12.64 7.02 0 12.56 2.3t9.36 6.4q3.82 4.09 5.81 9.79 1.99 5.69 1.99 12.48v50.54h-8.74q-2.73 0-4.21-.82t-2.34-3.31l-1.72-5.78q-3.04 2.73-5.92 4.8-2.89 2.07-6.01 3.47-3.12 1.41-6.67 2.15t-7.84.74q-5.07 0-9.36-1.37-4.29-1.36-7.41-4.09t-4.83-6.79q-1.72-4.05-1.72-9.44 0-3.04 1.01-6.04 1.02-3 3.32-5.73t5.97-5.15q3.66-2.42 9-4.21 5.35-1.8 12.45-2.93 7.09-1.13 16.22-1.36v-4.68q0-8.04-3.43-11.9t-9.91-3.86q-4.68 0-7.76 1.09t-5.42 2.46q-2.34 1.36-4.25 2.46-1.91 1.09-4.25 1.09-2.03 0-3.43-1.06-1.41-1.05-2.27-2.45m151.87-17.32v80.03h-19.27v-65.29H339.9q-.94 14.75-2.89 25.39-1.95 10.65-4.64 18.06t-6.01 11.89q-3.31 4.49-7.05 6.99-3.75 2.49-7.73 3.31-3.97.82-8.03.82-4.29 0-6.28-.74t-1.99-2.07v-12.01h4.6q2.58 0 5.15-.78 2.58-.78 4.99-3.2 2.42-2.42 4.61-6.9 2.18-4.49 4.01-11.86 1.84-7.37 3.24-18.05 1.4-10.69 2.18-25.59zm79.25 0h11.7v80.03H450.5v-46.72q0-1.8.2-3.94.19-2.15.5-4.33-1.56 3.59-3.43 6.32-.15.15-1.56 2.14-1.4 1.99-3.63 5.11-2.22 3.12-5.03 7.06-2.8 3.94-5.69 8-6.79 9.59-15.37 21.68-1.09 1.64-2.84 3.2-1.76 1.56-4.02 1.56h-11.78v-80.03h19.27v46.72q0 1.8-.2 3.94-.19 2.15-.5 4.33 1.71-3.82 3.43-6.32.08-.15 1.48-2.1t3.63-5.07q2.22-3.12 5.03-7.06t5.69-8.08q6.79-9.59 15.45-21.68 1.09-1.72 2.88-3.24 1.8-1.52 4.06-1.52"/></svg>