<svg xmlns="http://www.w3.org/2000/svg" width="600" height="400" viewBox="0 0 600 400"><rect width="100%" height="100%" fill="#2d3748"/><path fill="#e2e8f0" d="M170.71 209.795q.96 0 1.71.74l4.67 5.06q-3.88 4.8-9.53 7.35t-13.57 2.55q-7.09 0-12.74-2.42-5.66-2.42-9.66-6.73t-6.14-10.29q-2.13-5.99-2.13-13.07 0-7.17 2.29-13.14 2.28-5.96 6.44-10.27t9.92-6.71q5.77-2.4 12.76-2.4 6.96 0 12.35 2.29t9.17 5.98l-3.96 5.5q-.35.53-.9.93-.55.39-1.52.39-.66 0-1.36-.37-.71-.37-1.54-.92-.84-.55-1.94-1.21t-2.55-1.21-3.37-.93q-1.91-.37-4.42-.37-4.27 0-7.81 1.52-3.54 1.51-6.09 4.4-2.56 2.88-3.96 7.04-1.41 4.15-1.41 9.48 0 5.37 1.52 9.55 1.51 4.18 4.11 7.04t6.12 4.37q3.52 1.52 7.56 1.52 2.42 0 4.38-.26 1.96-.27 3.61-.84t3.12-1.47q1.48-.9 2.93-2.22.44-.4.92-.64.49-.24 1.02-.24m51.52-30.14v8.05h-16.1v37.09h-10.87v-37.09H179.2v-8.05zm30.27 33.48v-7.61q-4.71.22-7.92.81-3.21.6-5.15 1.52-1.93.92-2.77 2.16-.83 1.23-.83 2.68 0 2.86 1.69 4.09t4.42 1.23q3.35 0 5.79-1.21t4.77-3.67m-22.97-23.72-1.93-3.47q7.79-7.13 18.74-7.13 3.96 0 7.09 1.3 3.12 1.3 5.28 3.61 2.15 2.31 3.27 5.52 1.13 3.21 1.13 7.04v28.51h-4.93q-1.54 0-2.38-.46-.83-.46-1.32-1.87l-.97-3.26q-1.71 1.54-3.34 2.71-1.63 1.16-3.39 1.96-1.76.79-3.76 1.21-2 .41-4.42.41-2.86 0-5.28-.77t-4.18-2.31-2.73-3.82q-.97-2.29-.97-5.33 0-1.71.57-3.41.58-1.69 1.87-3.23 1.3-1.54 3.37-2.91 2.07-1.36 5.08-2.37 3.02-1.01 7.02-1.65t9.15-.77v-2.64q0-4.53-1.93-6.71-1.94-2.18-5.59-2.18-2.64 0-4.38.62-1.74.61-3.06 1.38t-2.4 1.39q-1.07.61-2.39.61-1.15 0-1.94-.59t-1.28-1.39m87.12-9.85h8.98v45.23h-9.81v-25.17q0-1.54.15-3.47.16-1.94.51-3.61l-13.29 24.37q-.97 1.9-3.08 1.9h-1.14q-2.12 0-3.08-1.9l-13.47-24.5q.31 1.67.51 3.65t.2 3.56v25.17h-9.82v-45.23h8.98q1.14 0 2.27.48 1.12.49 1.87 1.94l10.64 19.01q.71 1.32 1.32 2.79.62 1.47 1.15 2.97.53-1.5 1.12-2.99.59-1.5 1.3-2.77l10.56-19.01q.79-1.5 1.89-1.96t2.24-.46m40.92 37.97q5.64 0 8.41-3.61t2.77-10.56q0-6.91-2.71-10.51-2.7-3.61-8.25-3.61-5.54 0-8.44 3.41-2.91 3.41-2.91 10.18 0 7.18 2.75 10.94t8.38 3.76m15.84-46.9-12.67.83q-4.13.27-7.06 1.61t-4.84 3.61q-1.91 2.26-2.9 5.41-.99 3.14-1.17 6.97 1.1-1.71 2.71-3.14 1.6-1.43 3.6-2.47 2.01-1.03 4.36-1.6 2.35-.58 5.04-.58 4.49 0 8.09 1.59 3.61 1.58 6.14 4.49 2.53 2.9 3.87 6.97 1.35 4.07 1.35 9 0 5.1-1.61 9.19-1.61 4.1-4.53 6.98-2.93 2.88-7.06 4.42-4.14 1.54-9.16 1.54-4.88 0-8.99-1.58-4.12-1.59-7.11-5.15-2.99-3.57-4.66-9.26-1.68-5.7-1.68-13.93 0-6.91 1.28-12.85t4.18-10.4q2.9-4.47 7.61-7.2t11.62-3.25l16.06-1.24.57 5.64q.18 1.8-.53 3.05-.7 1.26-2.51 1.35m47.26 9.02h8.71l-24.59 57.55q-.49 1.14-1.26 1.74-.77.59-2.35.59h-8.1l8.45-18.13-18.26-41.75h9.55q1.27 0 2 .61.73.62 1.08 1.41l9.59 23.41q.48 1.19.81 2.37.33 1.19.64 2.42.4-1.23.79-2.44.4-1.21.88-2.4l9.07-23.36q.35-.88 1.16-1.45.82-.57 1.83-.57m56.01 0v45.14h-10.87v-36.83h-11.08q-.53 8.32-1.63 14.32-1.1 6.01-2.62 10.19t-3.39 6.71-3.98 3.94-4.36 1.87q-2.24.46-4.53.46-2.42 0-3.54-.42t-1.12-1.16v-6.78h2.59q1.46 0 2.91-.44t2.81-1.8q1.37-1.37 2.6-3.9t2.27-6.69q1.03-4.15 1.82-10.18t1.23-14.43z"/></svg>