<svg xmlns="http://www.w3.org/2000/svg" width="600" height="400" viewBox="0 0 600 400"><rect width="100%" height="100%" fill="#4a5568"/><path fill="#e2e8f0" d="M193.82 153.975v13.93h-27.47v77.17H149.4v-77.17h-27.47v-13.93zm38.11 25.45q7.18 0 13.08 2.34 5.89 2.33 10.08 6.61 4.18 4.28 6.45 10.46 2.27 6.17 2.27 13.79 0 7.69-2.27 13.86-2.27 6.18-6.45 10.53-4.19 4.34-10.08 6.67-5.9 2.34-13.08 2.34-7.24 0-13.16-2.34-5.93-2.33-10.12-6.67-4.19-4.35-6.48-10.53-2.3-6.17-2.3-13.86 0-7.62 2.3-13.79 2.29-6.18 6.48-10.46t10.12-6.61q5.92-2.34 13.16-2.34m0 54.62q8.07 0 11.94-5.41 3.88-5.42 3.88-15.88t-3.88-15.94q-3.87-5.48-11.94-5.48-8.19 0-12.12 5.51-3.94 5.52-3.94 15.91 0 10.4 3.94 15.85 3.93 5.44 12.12 5.44m71.38-30.93 11.03-18.58q1.13-1.83 3.08-2.96 1.96-1.14 4.16-1.14h12.22l-15.05 24.01q-1.58 2.51-3.22 4.06-1.63 1.54-3.97 2.42 3.15.95 5.17 2.81t3.65 4.69l15.12 26.65h-10.77q-4.09 0-6.36-1.39-2.27-1.38-3.84-3.97l-9.52-17.89q-1.26-2.33-3.24-3.46-1.99-1.14-4.63-1.14h-5.86v27.85h-15.56v-64.64h15.56v26.65h5.04q2.64 0 4.25-.98 1.61-.97 2.74-2.99m89.46-22.68h9.45v64.64h-15.56v-37.74q0-1.45.16-3.18t.41-3.49q-1.26 2.89-2.77 5.1-.13.12-1.26 1.73-1.14 1.61-2.93 4.13l-4.07 5.7q-2.26 3.18-4.6 6.46-5.48 7.75-12.41 17.51-.88 1.32-2.3 2.58-1.41 1.26-3.24 1.26h-9.51v-64.64h15.56v37.74q0 1.45-.16 3.18-.16 1.74-.41 3.5 1.39-3.09 2.77-5.1.07-.13 1.2-1.7l2.93-4.1q1.79-2.52 4.06-5.7t4.6-6.52q5.48-7.75 12.48-17.52.88-1.38 2.33-2.61t3.27-1.23m53.43-1.01q7.18 0 13.07 2.34 5.89 2.33 10.08 6.61t6.46 10.46q2.26 6.17 2.26 13.79 0 7.69-2.26 13.86-2.27 6.18-6.46 10.53-4.19 4.34-10.08 6.67-5.89 2.34-13.07 2.34-7.25 0-13.17-2.34-5.92-2.33-10.11-6.67-4.19-4.35-6.49-10.53-2.3-6.17-2.3-13.86 0-7.62 2.3-13.79 2.3-6.18 6.49-10.46t10.11-6.61q5.92-2.34 13.17-2.34m0 54.62q8.06 0 11.93-5.41 3.88-5.42 3.88-15.88t-3.88-15.94q-3.87-5.48-11.93-5.48-8.19 0-12.13 5.51-3.94 5.52-3.94 15.91 0 10.4 3.94 15.85 3.94 5.44 12.13 5.44"/></svg>