<svg xmlns="http://www.w3.org/2000/svg" width="600" height="400" viewBox="0 0 600 400"><rect width="100%" height="100%" fill="#2d3748"/><path fill="#e2e8f0" d="M150.36 221.03h36.36v-61.92h-23.7q-.72 12.78-1.95 22.68t-2.85 17.4-3.6 12.84-4.26 9m52.56 0h13.5v28.44q0 2.1-1.41 3.36t-3.69 1.26h-9.72v-20.64h-63.72v16.02q0 2.1-1.41 3.36t-3.69 1.26h-9.72v-33.06h9.48q1.68-.9 3.33-2.88t3.21-5.58 2.97-9.12 2.55-13.47 1.95-18.63 1.23-24.66h55.14zm67.62-49.14h11.88l-33.54 78.48q-.66 1.56-1.71 2.37t-3.21.81h-11.04l11.52-24.72-24.9-56.94h13.02q1.74 0 2.73.84t1.47 1.92l13.08 31.92q.66 1.62 1.11 3.24t.87 3.3q.54-1.68 1.08-3.33t1.2-3.27l12.36-31.86q.48-1.2 1.59-1.98t2.49-.78m48.18 51.66q7.68 0 11.46-4.92t3.78-14.4q0-9.42-3.69-14.34t-11.25-4.92-11.52 4.65-3.96 13.89q0 9.78 3.75 14.91t11.43 5.13m21.6-63.96-17.28 1.14q-5.64.36-9.63 2.19t-6.6 4.92-3.96 7.38-1.59 9.51q1.5-2.34 3.69-4.29t4.92-3.36 5.94-2.19 6.87-.78q6.12 0 11.04 2.16t8.37 6.12 5.28 9.51 1.83 12.27q0 6.96-2.19 12.54t-6.18 9.51-9.63 6.03-12.48 2.1q-6.66 0-12.27-2.16t-9.69-7.02-6.36-12.63-2.28-18.99q0-9.42 1.74-17.52t5.7-14.19 10.38-9.81 15.84-4.44l21.9-1.68.78 7.68q.24 2.46-.72 4.17t-3.42 1.83m52.92 57.96v-10.38q-6.42.3-10.8 1.11t-7.02 2.07-3.78 2.94-1.14 3.66q0 3.9 2.31 5.58t6.03 1.68q4.56 0 7.89-1.65t6.51-5.01m-31.32-32.34-2.64-4.74q10.62-9.72 25.56-9.72 5.4 0 9.66 1.77t7.2 4.92 4.47 7.53 1.53 9.6v38.88h-6.72q-2.1 0-3.24-.63t-1.8-2.55l-1.32-4.44q-2.34 2.1-4.56 3.69t-4.62 2.67-5.13 1.65-6.03.57q-3.9 0-7.2-1.05t-5.7-3.15-3.72-5.22-1.32-7.26q0-2.34.78-4.65t2.55-4.41 4.59-3.96 6.93-3.24 9.57-2.25 12.48-1.05v-3.6q0-6.18-2.64-9.15t-7.62-2.97q-3.6 0-5.97.84t-4.17 1.89-3.27 1.89-3.27.84q-1.56 0-2.64-.81t-1.74-1.89m106.02-13.32h9v61.56h-14.82v-35.94q0-1.38.15-3.03t.39-3.33q-1.2 2.76-2.64 4.86-.12.12-1.2 1.65t-2.79 3.93l-3.87 5.43q-2.16 3.03-4.38 6.15-5.22 7.38-11.82 16.68-.84 1.26-2.19 2.46t-3.09 1.2h-9.06v-61.56h14.82v35.94q0 1.38-.15 3.03t-.39 3.33q1.32-2.94 2.64-4.86.06-.12 1.14-1.62t2.79-3.9l3.87-5.43q2.16-3.03 4.38-6.21 5.22-7.38 11.88-16.68.84-1.32 2.22-2.49t3.12-1.17m-17.82-15.6q2.22 0 3.72-.48t2.4-1.59 1.26-2.97.36-4.56h8.76q1.56 0 2.31 1.29t.75 2.85q0 3.06-1.38 5.55t-3.96 4.2-6.18 2.64-8.04.93-8.04-.93-6.18-2.64-3.96-4.2-1.38-5.55q0-1.56.75-2.85t2.31-1.29h8.76q0 2.7.36 4.56t1.26 2.97 2.37 1.59 3.75.48"/></svg>