<svg xmlns="http://www.w3.org/2000/svg" width="600" height="400" viewBox="0 0 600 400"><rect width="100%" height="100%" fill="#4a5568"/><path fill="#e2e8f0" d="M210.725 217.355q1.72 0 3.05 1.33l8.26 8.97q-6.86 8.5-16.88 13.02-10.03 4.53-24.07 4.53-12.55 0-22.58-4.29-10.02-4.29-17.12-11.94-7.1-7.64-10.88-18.25t-3.78-23.16q0-12.72 4.05-23.29 4.06-10.57 11.43-18.21t17.59-11.89q10.22-4.26 22.62-4.26 12.32 0 21.88 4.06 9.55 4.06 16.26 10.61l-7.02 9.75q-.62.93-1.6 1.64-.97.7-2.69.7-1.17 0-2.42-.66-1.24-.67-2.73-1.64-1.48-.98-3.43-2.15t-4.52-2.14q-2.58-.98-5.97-1.64t-7.84-.66q-7.56 0-13.84 2.69t-10.81 7.8q-4.52 5.11-7.02 12.48-2.49 7.37-2.49 16.81 0 9.51 2.69 16.92t7.29 12.48 10.84 7.76 13.42 2.69q4.29 0 7.76-.46 3.47-.47 6.4-1.49 2.92-1.01 5.53-2.61 2.62-1.6 5.19-3.94.78-.7 1.64-1.13t1.79-.43m37.91-22.62h36.35q0-3.74-1.05-7.06-1.06-3.31-3.16-5.81-2.11-2.49-5.35-3.94-3.23-1.44-7.52-1.44-8.35 0-13.15 4.76-4.79 4.76-6.12 13.49m49.14 11.62h-49.53q.47 6.17 2.19 10.65 1.71 4.49 4.52 7.41 2.81 2.93 6.67 4.37t8.54 1.44 8.07-1.09q3.4-1.09 5.93-2.42 2.54-1.32 4.45-2.42 1.91-1.09 3.7-1.09 2.42 0 3.59 1.8l5.54 7.02q-3.2 3.74-7.18 6.27-3.98 2.54-8.31 4.06-4.32 1.52-8.81 2.15-4.48.62-8.7.62-8.34 0-15.52-2.77-7.17-2.77-12.48-8.19-5.3-5.42-8.34-13.41-3.05-8-3.05-18.53 0-8.19 2.66-15.4 2.65-7.22 7.6-12.56 4.95-5.35 12.09-8.47t16.11-3.12q7.56 0 13.96 2.42t11 7.06 7.21 11.39q2.62 6.75 2.62 15.4 0 4.37-.94 5.89t-3.59 1.52m76.21-42.43h15.44l-43.6 102.03q-.86 2.02-2.22 3.08-1.37 1.05-4.18 1.05h-14.35l14.98-32.14-32.37-74.02h16.92q2.27 0 3.55 1.09 1.29 1.1 1.91 2.5l17.01 41.5q.86 2.1 1.44 4.21.59 2.1 1.13 4.29.7-2.19 1.41-4.33.7-2.15 1.56-4.25l16.06-41.42q.63-1.56 2.07-2.57 1.44-1.02 3.24-1.02m99.29 0v80.03h-19.26v-65.29h-19.66q-.94 14.75-2.89 25.39-1.95 10.65-4.64 18.06t-6 11.89q-3.32 4.49-7.06 6.99-3.75 2.49-7.72 3.31-3.98.82-8.04.82-4.29 0-6.28-.74t-1.99-2.07v-12.01h4.61q2.57 0 5.14-.78 2.58-.78 5-3.2 2.41-2.42 4.6-6.9 2.18-4.49 4.01-11.86 1.84-7.37 3.24-18.05 1.41-10.69 2.19-25.59z"/></svg>