<svg xmlns="http://www.w3.org/2000/svg" width="600" height="400" viewBox="0 0 600 400"><rect width="100%" height="100%" fill="#718096"/><path fill="#e2e8f0" d="m158.62 204.2 15.16 24.4h-9.76q-1.52 0-2.54-.8t-1.9-2.36L147.26 206q-.48-.84-1.02-1.38t-1.16-.88-1.4-.46-1.78-.12h-6.44v25.44H124.7v-57.84h10.76V195h5.44q1.64 0 2.84-.56t2.24-2.08l12.68-18.72q.8-1.28 1.88-2.08t2.6-.8h9.2l-15.72 23.2q-1 1.52-2.32 2.52t-2.92 1.56q2.4.68 4.06 2.14t3.18 4.02M200.5 218v-6.92q-4.28.2-7.2.74t-4.68 1.38-2.52 1.96-.76 2.44q0 2.6 1.54 3.72t4.02 1.12q3.04 0 5.26-1.1t4.34-3.34m-20.88-21.56-1.76-3.16q7.08-6.48 17.04-6.48 3.6 0 6.44 1.18t4.8 3.28 2.98 5.02 1.02 6.4v25.92h-4.48q-1.4 0-2.16-.42t-1.2-1.7l-.88-2.96q-1.56 1.4-3.04 2.46t-3.08 1.78-3.42 1.1-4.02.38q-2.6 0-4.8-.7t-3.8-2.1-2.48-3.48-.88-4.84q0-1.56.52-3.1t1.7-2.94 3.06-2.64 4.62-2.16 6.38-1.5 8.32-.7v-2.4q0-4.12-1.76-6.1t-5.08-1.98q-2.4 0-3.98.56t-2.78 1.26-2.18 1.26-2.18.56q-1.04 0-1.76-.54t-1.16-1.26m79.2-8.96h8.16v41.12h-8.92v-22.88q0-1.4.14-3.16t.46-3.28l-12.08 22.16q-.88 1.72-2.8 1.72h-1.04q-1.92 0-2.8-1.72l-12.24-22.28q.28 1.52.46 3.32t.18 3.24v22.88h-8.92v-41.12h8.16q1.04 0 2.06.44t1.7 1.76l9.68 17.28q.64 1.2 1.2 2.54t1.04 2.7q.48-1.36 1.02-2.72t1.18-2.52l9.6-17.28q.72-1.36 1.72-1.78t2.04-.42m40.44.08h9.88v41.04h-9.88v-16.12q-5.28 1.28-9.8 1.46t-7.82-1.08-5.16-4.1-1.86-7.56v-13.64h9.88v12.12q0 2.52.82 4.06t2.6 2.22 4.58.56 6.76-.92zM340.58 218v-6.92q-4.28.2-7.2.74t-4.68 1.38-2.52 1.96-.76 2.44q0 2.6 1.54 3.72t4.02 1.12q3.04 0 5.26-1.1t4.34-3.34m-20.88-21.56-1.76-3.16q7.08-6.48 17.04-6.48 3.6 0 6.44 1.18t4.8 3.28 2.98 5.02 1.02 6.4v25.92h-4.48q-1.4 0-2.16-.42t-1.2-1.7l-.88-2.96q-1.56 1.4-3.04 2.46t-3.08 1.78-3.42 1.1-4.02.38q-2.6 0-4.8-.7t-3.8-2.1-2.48-3.48-.88-4.84q0-1.56.52-3.1t1.7-2.94 3.06-2.64 4.62-2.16 6.38-1.5 8.32-.7v-2.4q0-4.12-1.76-6.1t-5.08-1.98q-2.4 0-3.98.56t-2.78 1.26-2.18 1.26-2.18.56q-1.04 0-1.76-.54t-1.16-1.26m75-8.88v7.32h-14.64v33.72h-9.88v-33.72h-14.6v-7.32zm23.36 14.4 7-11.8q.72-1.16 1.96-1.88t2.64-.72h7.76l-9.56 15.24q-1 1.6-2.04 2.58t-2.52 1.54q2 .6 3.28 1.78t2.32 2.98l9.6 16.92h-6.84q-2.6 0-4.04-.88t-2.44-2.52l-6.04-11.36q-.8-1.48-2.06-2.2t-2.94-.72h-3.72v17.68h-9.88v-41.04h9.88v16.92h3.2q1.68 0 2.7-.62t1.74-1.9m47.6 16.04v-6.92q-4.28.2-7.2.74t-4.68 1.38-2.52 1.96-.76 2.44q0 2.6 1.54 3.72t4.02 1.12q3.04 0 5.26-1.1t4.34-3.34m-20.88-21.56-1.76-3.16q7.08-6.48 17.04-6.48 3.6 0 6.44 1.18t4.8 3.28 2.98 5.02 1.02 6.4v25.92h-4.48q-1.4 0-2.16-.42t-1.2-1.7l-.88-2.96q-1.56 1.4-3.04 2.46t-3.08 1.78-3.42 1.1-4.02.38q-2.6 0-4.8-.7t-3.8-2.1-2.48-3.48-.88-4.84q0-1.56.52-3.1t1.7-2.94 3.06-2.64 4.62-2.16 6.38-1.5 8.32-.7v-2.4q0-4.12-1.76-6.1t-5.08-1.98q-2.4 0-3.98.56t-2.78 1.26-2.18 1.26-2.18.56q-1.04 0-1.76-.54t-1.16-1.26"/></svg>