<svg xmlns="http://www.w3.org/2000/svg" width="600" height="400" viewBox="0 0 600 400"><rect width="100%" height="100%" fill="#4a5568"/><path fill="#e2e8f0" d="M157.87 225.805h45.45v-77.4H173.7q-.9 15.97-2.44 28.34-1.54 12.38-3.56 21.76-2.03 9.37-4.5 16.05-2.48 6.67-5.33 11.25m65.7 0h16.88v35.54q0 2.63-1.76 4.2-1.77 1.58-4.62 1.58h-12.15v-25.8h-79.65v20.02q0 2.63-1.76 4.2-1.76 1.58-4.61 1.58h-12.15v-41.32h11.85q2.1-1.13 4.16-3.61 2.06-2.47 4.01-6.97t3.72-11.4q1.76-6.9 3.18-16.84 1.43-9.93 2.44-23.29 1.01-13.34 1.54-30.82h68.92zm63.53-62.63q8.55 0 15.56 2.77 7.01 2.78 12 7.88t7.69 12.45 2.7 16.42q0 9.16-2.7 16.5-2.7 7.36-7.69 12.53-4.99 5.18-12 7.95-7.01 2.78-15.56 2.78-8.63 0-15.68-2.78-7.05-2.77-12.03-7.95-4.99-5.17-7.73-12.53-2.74-7.34-2.74-16.5 0-9.07 2.74-16.42t7.73-12.45q4.98-5.1 12.03-7.88 7.05-2.77 15.68-2.77m0 65.02q9.6 0 14.21-6.44 4.61-6.45 4.61-18.91 0-12.44-4.61-18.97-4.61-6.52-14.21-6.52-9.75 0-14.44 6.56t-4.69 18.93q0 12.38 4.69 18.87 4.69 6.48 14.44 6.48m94.5-27.37 26.32 40.5h-17.85q-2.02 0-3.26-1.05t-2.06-2.4l-16.28-26.77q-.37 1.27-.86 2.4-.49 1.12-1.09 2.1l-14.4 22.27q-.82 1.28-2.02 2.36-1.2 1.09-3 1.09h-16.58l26.4-39.67-25.35-37.28h17.85q2.03 0 3 .56.98.56 1.73 1.84l16.12 25.65q.83-2.55 2.33-5.02l12.97-20.25q1.65-2.78 4.28-2.78h17.02zm76.57 20.62v-12.97q-8.02.37-13.5 1.39-5.47 1.01-8.77 2.58-3.3 1.58-4.73 3.68-1.42 2.1-1.42 4.57 0 4.88 2.89 6.98 2.88 2.1 7.53 2.1 5.7 0 9.87-2.06 4.16-2.06 8.13-6.27m-39.15-40.42-3.3-5.92q13.28-12.16 31.95-12.16 6.75 0 12.08 2.22 5.32 2.21 9 6.15 3.67 3.93 5.59 9.41 1.91 5.47 1.91 12v48.6h-8.4q-2.63 0-4.05-.79-1.43-.78-2.25-3.18l-1.65-5.56q-2.93 2.63-5.7 4.62-2.78 1.99-5.78 3.34t-6.41 2.06-7.54.71q-4.87 0-9-1.31-4.12-1.32-7.12-3.94t-4.65-6.52-1.65-9.08q0-2.92.97-5.81.98-2.89 3.19-5.51 2.21-2.63 5.74-4.95 3.52-2.33 8.66-4.06 5.14-1.72 11.96-2.81 6.83-1.09 15.6-1.31v-4.5q0-7.72-3.3-11.44-3.3-3.71-9.52-3.71-4.5 0-7.46 1.05-2.97 1.05-5.22 2.36-2.25 1.32-4.08 2.37-1.84 1.05-4.09 1.05-1.95 0-3.3-1.02-1.35-1.01-2.18-2.36"/></svg>