<svg xmlns="http://www.w3.org/2000/svg" width="600" height="400" viewBox="0 0 600 400"><rect width="100%" height="100%" fill="#2d3748"/><path fill="#e2e8f0" d="M209.95 229.41q1.69 0 3 1.31l8.16 8.86q-6.77 8.39-16.67 12.86-9.89 4.46-23.75 4.46-12.4 0-22.3-4.23-9.89-4.24-16.9-11.78-7-7.55-10.74-18.02-3.73-10.47-3.73-22.87 0-12.55 4-22.99 4.01-10.43 11.28-17.98 7.28-7.54 17.37-11.74 10.08-4.19 22.33-4.19 12.16 0 21.59 4 9.44 4 16.06 10.47l-6.93 9.63q-.62.92-1.58 1.61-.96.7-2.66.7-1.15 0-2.38-.66-1.24-.65-2.7-1.61-1.46-.97-3.39-2.12-1.92-1.16-4.46-2.12t-5.89-1.62q-3.35-.65-7.74-.65-7.47 0-13.67 2.66-6.2 2.65-10.66 7.7-4.47 5.04-6.93 12.32-2.47 7.27-2.47 16.59 0 9.39 2.66 16.71 2.66 7.31 7.2 12.32 4.54 5 10.7 7.66t13.25 2.66q4.23 0 7.66-.47 3.42-.46 6.31-1.46t5.47-2.58 5.12-3.89q.77-.69 1.62-1.11.84-.43 1.77-.43m57.36-53.97q8.78 0 15.98 2.84 7.2 2.85 12.32 8.09t7.89 12.78q2.77 7.55 2.77 16.86 0 9.4-2.77 16.95-2.77 7.54-7.89 12.85-5.12 5.32-12.32 8.17t-15.98 2.85q-8.85 0-16.09-2.85t-12.36-8.17q-5.12-5.31-7.93-12.85-2.81-7.55-2.81-16.95 0-9.31 2.81-16.86 2.81-7.54 7.93-12.78t12.36-8.09q7.24-2.84 16.09-2.84m0 66.76q9.86 0 14.59-6.63 4.74-6.62 4.74-19.4t-4.74-19.48q-4.73-6.7-14.59-6.7-10.01 0-14.82 6.74-4.81 6.73-4.81 19.44 0 12.7 4.81 19.36 4.81 6.67 14.82 6.67m96.87-65.53h19.02v79h-19.02v-31.03q-10.17 2.46-18.87 2.81t-15.05-2.08-9.93-7.89q-3.59-5.47-3.59-14.55v-26.26h19.02V200q0 4.85 1.58 7.81 1.58 2.97 5.01 4.28 3.42 1.31 8.81 1.08t13.02-1.77zm97.25 0h11.55v79h-19.02v-46.12q0-1.77.19-3.89t.5-4.27q-1.54 3.54-3.39 6.23-.15.16-1.54 2.12-1.38 1.96-3.58 5.04-2.19 3.08-4.96 6.97l-5.62 7.89q-6.7 9.48-15.17 21.41-1.08 1.62-2.81 3.16-1.74 1.54-3.97 1.54h-11.63v-79H421v46.12q0 1.77-.19 3.89-.19 2.11-.5 4.27 1.69-3.77 3.39-6.24.08-.15 1.46-2.08 1.39-1.92 3.58-5 2.2-3.08 4.97-6.97t5.62-7.97q6.7-9.47 15.24-21.4 1.08-1.7 2.85-3.2 1.78-1.5 4.01-1.5"/></svg>