<svg xmlns="http://www.w3.org/2000/svg" width="600" height="400" viewBox="0 0 600 400"><rect width="100%" height="100%" fill="#718096"/><path fill="#e2e8f0" d="M172.64 167.33h7.4v52.78h-8.65v-34.09q0-2.04.22-4.42l-15.95 29.97q-1.13 2.15-3.46 2.15h-1.39q-2.34 0-3.47-2.15l-16.13-30.08q.11 1.21.18 2.38.07 1.16.07 2.15v34.09h-8.65v-52.78h7.41q.66 0 1.13.04.48.03.86.18t.69.47q.32.33.61.88l15.8 29.31q.62 1.17 1.15 2.41t1.04 2.55q.51-1.35 1.06-2.61.55-1.25 1.17-2.42l15.58-29.24q.3-.55.62-.88.33-.32.72-.47.38-.15.85-.18.48-.04 1.14-.04m37.52 43.11v-6.32q-3.91.19-6.57.68-2.67.49-4.27 1.26-1.61.76-2.3 1.79-.7 1.02-.7 2.22 0 2.38 1.41 3.4 1.4 1.02 3.67 1.02 2.77 0 4.8-1 2.02-1.01 3.96-3.05m-19.06-19.68-1.6-2.88q6.46-5.91 15.55-5.91 3.28 0 5.87 1.07 2.6 1.08 4.38 3 1.79 1.91 2.72 4.58.93 2.66.93 5.84v23.65h-4.08q-1.28 0-1.98-.38-.69-.39-1.09-1.55l-.8-2.71q-1.43 1.28-2.78 2.25t-2.81 1.62q-1.46.66-3.12 1.01-1.66.34-3.67.34-2.37 0-4.38-.63-2-.64-3.46-1.92t-2.27-3.18q-.8-1.89-.8-4.41 0-1.43.47-2.83.48-1.41 1.56-2.68 1.07-1.28 2.79-2.41 1.71-1.13 4.21-1.97t5.83-1.37q3.32-.53 7.59-.64v-2.19q0-3.76-1.61-5.57-1.6-1.8-4.63-1.8-2.19 0-3.64.51-1.44.51-2.53 1.15-1.1.63-1.99 1.15-.9.51-1.99.51-.95 0-1.61-.5-.65-.49-1.06-1.15m71.07-8.1v37.45h-9.02v-30.55h-9.19q-.44 6.9-1.35 11.88-.92 4.98-2.18 8.45t-2.81 5.57-3.3 3.26q-1.75 1.17-3.61 1.55-1.86.39-3.76.39-2.01 0-2.94-.35t-.93-.97v-5.62h2.15q1.21 0 2.41-.36 1.21-.37 2.34-1.5t2.15-3.23 1.88-5.55 1.51-8.45q.66-5 1.03-11.97zm17.48 30.99h6.72q3.07 0 4.58-1.53 1.51-1.54 1.51-3.95 0-1.02-.34-1.97-.35-.95-1.08-1.68t-1.9-1.15q-1.16-.41-2.81-.41h-6.68zm0-17.12h6.65q3.9 0 6.6.95t4.38 2.56q1.68 1.6 2.43 3.7t.75 4.4q0 2.63-.93 4.83-.93 2.21-2.74 3.8t-4.42 2.46q-2.61.88-5.96.88h-15.33v-37.45h8.57zm36.98 17.16h14.82v-24.13h-9.2q-.37 4.71-.91 8.49-.55 3.77-1.28 6.73t-1.59 5.15-1.84 3.76m23.58-.26h6.86v16.53q0 1.25-.71 1.98t-1.85.73h-5.62v-12.56h-28.03v10q0 .95-.6 1.75-.6.81-1.88.81h-5.7v-18.98h1.06q1.28 0 2.49-.35 1.2-.35 2.31-1.44 1.12-1.1 2.12-3.16t1.81-5.51q.8-3.45 1.4-8.49.6-5.03.97-12.08h25.37zm40.69-30.77h5.48v37.45h-9.02v-21.86q0-.84.09-1.85.1-1 .24-2.02-.73 1.68-1.6 2.95-.08.08-.73 1.01-.66.93-1.7 2.39t-2.36 3.3q-1.31 1.85-2.66 3.74l-7.19 10.15q-.51.77-1.33 1.5t-1.88.73h-5.51V182.7h9.01v21.86q0 .84-.09 1.84-.09 1.01-.24 2.03.81-1.79 1.61-2.96.04-.07.69-.98.66-.91 1.7-2.37t2.35-3.31q1.32-1.84 2.67-3.78 3.17-4.48 7.23-10.14.51-.81 1.35-1.52t1.89-.71m22.96 31.28h6.72q2.85 0 4.51-1.39 1.66-1.38 1.66-3.79 0-1.02-.28-1.92-.27-.89-.96-1.55-.7-.66-1.88-1.02-1.19-.37-3.01-.37h-6.76zm5.92-25.4h-5.92v9.82h5.92q1.31 0 2.4-.39 1.1-.38 1.9-1.09.81-.71 1.24-1.68.44-.97.44-2.14 0-.84-.29-1.66t-.99-1.46q-.69-.64-1.84-1.02t-2.86-.38m-14.49-5.88h14.74q3.54 0 6.11.69 2.58.7 4.26 1.9 1.68 1.21 2.48 2.87t.8 3.59q0 1.21-.31 2.5-.31 1.3-1.09 2.5-.79 1.21-2.14 2.19-1.35.99-3.43 1.54 1.86.4 3.39 1.11 1.54.71 2.63 1.79 1.1 1.08 1.7 2.52t.6 3.23q0 2.84-1.18 4.92-1.19 2.09-3.18 3.44t-4.6 2q-2.61.66-5.45.66h-15.33zm45.25 30.99h6.72q3.07 0 4.58-1.53 1.52-1.54 1.52-3.95 0-1.02-.35-1.97t-1.08-1.68-1.89-1.15q-1.17-.41-2.82-.41h-6.68zm0-17.12h6.65q3.9 0 6.6.95 2.71.95 4.38 2.56 1.68 1.6 2.43 3.7t.75 4.4q0 2.63-.93 4.83-.93 2.21-2.74 3.8-1.8 1.59-4.41 2.46-2.61.88-5.97.88h-15.33v-37.45h8.57zm27.64-13.87h9.01v37.45h-9.01z"/></svg>