<svg xmlns="http://www.w3.org/2000/svg" width="600" height="400" viewBox="0 0 600 400"><rect width="100%" height="100%" fill="#2d3748"/><path fill="#e2e8f0" d="m193.59 195.835 28.99 46.66h-18.66q-2.91 0-4.86-1.53t-3.64-4.51l-23.56-37.18q-.92-1.61-1.95-2.64t-2.22-1.68q-1.18-.66-2.68-.88-1.49-.23-3.4-.23h-12.32v48.65h-20.57v-110.62h20.57v46.36h10.41q3.13 0 5.43-1.07 2.29-1.07 4.28-3.98l24.25-35.8q1.53-2.45 3.6-3.98t4.97-1.53h17.6l-30.07 44.37q-1.91 2.91-4.43 4.82-2.53 1.91-5.59 2.98 4.59 1.3 7.77 4.1 3.17 2.79 6.08 7.69m80.09 26.39v-13.24q-8.18.39-13.77 1.42-5.58 1.03-8.95 2.64-3.36 1.6-4.82 3.75-1.45 2.14-1.45 4.66 0 4.97 2.94 7.12 2.95 2.14 7.69 2.14 5.82 0 10.06-2.1 4.25-2.11 8.3-6.39m-39.93-41.24-3.37-6.04q13.54-12.39 32.59-12.39 6.89 0 12.32 2.25 5.43 2.26 9.18 6.28 3.75 4.01 5.7 9.6 1.95 5.58 1.95 12.24v49.57h-8.57q-2.68 0-4.13-.8-1.45-.81-2.29-3.25l-1.69-5.67q-2.98 2.68-5.81 4.71t-5.89 3.4q-3.06 1.38-6.54 2.11-3.48.72-7.69.72-4.97 0-9.18-1.33-4.21-1.34-7.27-4.02t-4.74-6.66q-1.68-3.97-1.68-9.25 0-2.99.99-5.93.99-2.95 3.25-5.62 2.26-2.68 5.85-5.05 3.6-2.38 8.84-4.13 5.24-1.76 12.2-2.87t15.91-1.34v-4.59q0-7.88-3.36-11.67-3.37-3.79-9.72-3.79-4.59 0-7.61 1.08-3.02 1.07-5.32 2.41-2.29 1.33-4.17 2.41-1.87 1.07-4.17 1.07-1.98 0-3.36-1.04-1.38-1.03-2.22-2.41m135.18-16.98h11.47v78.49h-18.89v-45.82q0-1.76.19-3.87.19-2.1.49-4.24-1.53 3.52-3.36 6.19-.16.16-1.53 2.11-1.38 1.95-3.56 5.01l-4.93 6.92q-2.76 3.86-5.59 7.84-6.65 9.41-15.07 21.27-1.07 1.61-2.79 3.14t-3.94 1.53h-11.55v-78.49h18.89v45.82q0 1.76-.19 3.86-.19 2.11-.5 4.25 1.69-3.75 3.37-6.2.08-.15 1.45-2.06 1.38-1.91 3.56-4.97t4.94-6.93q2.75-3.86 5.58-7.92 6.66-9.4 15.15-21.26 1.07-1.69 2.83-3.18t3.98-1.49m49.03 22.95v35.19q3.21 3.9 7 5.51t8.23 1.61q4.28 0 7.72-1.61t5.85-4.9 3.71-8.3q1.31-5.01 1.31-11.82 0-6.88-1.11-11.66t-3.18-7.77q-2.06-2.98-5.01-4.36-2.94-1.38-6.69-1.38-5.89 0-10.03 2.49-4.13 2.49-7.8 7m-2.52-19.51 1.53 7.27q4.82-5.43 10.94-8.8 6.12-3.36 14.38-3.36 6.43 0 11.74 2.67 5.32 2.68 9.18 7.77t5.97 12.55q2.1 7.45 2.1 17.09 0 8.8-2.37 16.3-2.37 7.49-6.77 13t-10.63 8.61q-6.24 3.1-13.96 3.1-6.58 0-11.25-2.03t-8.34-5.62v32.13h-18.89v-104.12h11.55q3.67 0 4.82 3.44"/></svg>