<svg xmlns="http://www.w3.org/2000/svg" width="600" height="400" viewBox="0 0 600 400"><rect width="100%" height="100%" fill="#718096"/><path fill="#e2e8f0" d="M201.535 143.895v91.1h-17.08v-78.06h-39.56v78.06h-17.01v-91.1zm30.11 51.35h29.36q0-3.03-.85-5.7-.85-2.68-2.55-4.7-1.7-2.01-4.32-3.18-2.61-1.16-6.08-1.16-6.74 0-10.61 3.84-3.88 3.84-4.95 10.9m39.69 9.38h-40q.37 4.98 1.76 8.6 1.39 3.63 3.65 5.99 2.27 2.36 5.39 3.53 3.12 1.16 6.9 1.16t6.52-.88 4.79-1.95 3.59-1.96q1.54-.88 2.99-.88 1.95 0 2.9 1.45l4.47 5.67q-2.58 3.02-5.79 5.07-3.22 2.05-6.71 3.28-3.5 1.23-7.12 1.73-3.62.51-7.03.51-6.74 0-12.53-2.24-5.8-2.24-10.08-6.62-4.29-4.38-6.74-10.83-2.46-6.46-2.46-14.96 0-6.62 2.14-12.45t6.14-10.14q4-4.32 9.77-6.84 5.76-2.52 13.01-2.52 6.11 0 11.27 1.96 5.17 1.95 8.89 5.7 3.71 3.75 5.83 9.2 2.11 5.45 2.11 12.44 0 3.53-.76 4.76-.76 1.22-2.9 1.22m70.75-34.27v11.53h-23.06v53.11h-15.56v-53.11h-22.99v-11.53zm24.76 18.9v28.98q2.65 3.22 5.76 4.54 3.12 1.32 6.78 1.32 3.52 0 6.36-1.32 2.83-1.32 4.82-4.03 1.98-2.71 3.05-6.84 1.08-4.13 1.08-9.73 0-5.67-.92-9.61-.91-3.94-2.61-6.4-1.7-2.45-4.13-3.59-2.42-1.13-5.51-1.13-4.85 0-8.25 2.05-3.41 2.05-6.43 5.76m-2.08-16.06 1.26 5.98q3.97-4.47 9.01-7.24t11.84-2.77q5.3 0 9.67 2.2 4.38 2.21 7.56 6.39 3.19 4.19 4.92 10.34 1.73 6.14 1.73 14.08 0 7.24-1.95 13.42-1.96 6.17-5.58 10.71-3.62 4.53-8.75 7.08-5.14 2.56-11.5 2.56-5.42 0-9.26-1.67-3.85-1.67-6.87-4.64v26.47h-15.56v-85.75h9.51q3.03 0 3.97 2.84m92.17 45.1v-10.89q-6.74.31-11.34 1.16t-7.37 2.18q-2.77 1.32-3.97 3.08-1.2 1.77-1.2 3.85 0 4.09 2.43 5.85 2.42 1.77 6.33 1.77 4.79 0 8.28-1.73 3.5-1.74 6.84-5.27m-32.89-33.95-2.77-4.98q11.15-10.2 26.84-10.2 5.67 0 10.14 1.85 4.48 1.86 7.56 5.17 3.09 3.31 4.7 7.91 1.6 4.6 1.6 10.08v40.82h-7.05q-2.21 0-3.41-.66-1.19-.66-1.89-2.68l-1.38-4.66q-2.46 2.2-4.79 3.87t-4.85 2.81q-2.52 1.13-5.39 1.73-2.86.6-6.33.6-4.09 0-7.56-1.1-3.46-1.11-5.98-3.31-2.52-2.21-3.91-5.48-1.39-3.28-1.39-7.63 0-2.45.82-4.88.82-2.42 2.68-4.63 1.86-2.2 4.82-4.16 2.96-1.95 7.28-3.4 4.31-1.45 10.05-2.36 5.73-.91 13.1-1.1v-3.78q0-6.49-2.77-9.61t-8-3.12q-3.78 0-6.27.88t-4.38 1.99q-1.89 1.1-3.43 1.98-1.55.88-3.44.88-1.64 0-2.77-.85t-1.83-1.98"/></svg>