<svg xmlns="http://www.w3.org/2000/svg" width="600" height="400" viewBox="0 0 600 400"><rect width="100%" height="100%" fill="#4a5568"/><path fill="#e2e8f0" d="M165.395 168.17v52.06h-9.75v-44.6h-22.61v44.6h-9.72v-52.06zm17.21 29.34h16.78q0-1.72-.49-3.25t-1.46-2.69q-.97-1.15-2.46-1.81-1.5-.67-3.48-.67-3.85 0-6.06 2.2-2.22 2.19-2.83 6.22m22.68 5.37h-22.86q.22 2.84 1.01 4.91t2.09 3.42q1.29 1.35 3.07 2.02 1.79.66 3.95.66t3.72-.5q1.57-.5 2.74-1.12 1.17-.61 2.05-1.11.88-.51 1.71-.51 1.12 0 1.66.83l2.55 3.24q-1.47 1.73-3.31 2.9t-3.83 1.87q-2 .7-4.07.99t-4.02.29q-3.85 0-7.16-1.28t-5.76-3.78-3.85-6.19q-1.41-3.69-1.41-8.55 0-3.78 1.23-7.11 1.22-3.33 3.51-5.8 2.28-2.46 5.58-3.9 3.29-1.44 7.43-1.44 3.49 0 6.45 1.11 2.95 1.12 5.07 3.26 2.13 2.14 3.33 5.26 1.21 3.11 1.21 7.11 0 2.01-.43 2.72-.44.7-1.66.7m40.43-19.59v6.59h-13.18v30.35h-8.89v-30.35h-13.14v-6.59zm12.27 14.22h16.78q0-1.72-.49-3.25-.48-1.53-1.45-2.69-.98-1.15-2.47-1.81-1.49-.67-3.47-.67-3.86 0-6.07 2.2-2.21 2.19-2.83 6.22m22.68 5.37h-22.86q.22 2.84 1.01 4.91t2.09 3.42 3.08 2.02q1.78.66 3.94.66t3.73-.5q1.56-.5 2.73-1.12 1.17-.61 2.05-1.11.89-.51 1.71-.51 1.12 0 1.66.83l2.56 3.24q-1.48 1.73-3.32 2.9-1.83 1.17-3.83 1.87t-4.07.99-4.01.29q-3.85 0-7.17-1.28-3.31-1.28-5.76-3.78-2.44-2.5-3.85-6.19-1.4-3.69-1.4-8.55 0-3.78 1.22-7.11 1.23-3.33 3.51-5.8 2.29-2.46 5.58-3.9 3.3-1.44 7.44-1.44 3.49 0 6.44 1.11 2.95 1.12 5.08 3.26 2.12 2.14 3.33 5.26 1.2 3.11 1.2 7.11 0 2.01-.43 2.72-.43.7-1.66.7m17.64-8.79v16.56q1.52 1.84 3.3 2.6 1.78.75 3.87.75 2.01 0 3.63-.75 1.62-.76 2.76-2.31 1.13-1.55 1.74-3.9.62-2.36.62-5.57 0-3.24-.53-5.49-.52-2.25-1.49-3.65t-2.36-2.05q-1.38-.65-3.15-.65-2.77 0-4.71 1.17-1.95 1.17-3.68 3.29m-1.18-9.18.72 3.42q2.26-2.55 5.14-4.14 2.88-1.58 6.77-1.58 3.03 0 5.53 1.26t4.32 3.65q1.82 2.4 2.81 5.91t.99 8.04q0 4.14-1.12 7.67t-3.19 6.12-5 4.05-6.57 1.46q-3.1 0-5.29-.95-2.2-.96-3.93-2.65v15.12h-8.89v-49h5.44q1.73 0 2.27 1.62m50.5 29.38q4.61 0 6.88-2.95t2.27-8.64q0-5.65-2.22-8.61-2.21-2.95-6.75-2.95-4.53 0-6.91 2.79-2.37 2.79-2.37 8.34 0 5.86 2.25 8.94t6.85 3.08m12.96-38.38-10.36.69q-3.39.21-5.78 1.31-2.4 1.1-3.96 2.95-1.57 1.86-2.38 4.43-.81 2.58-.95 5.71.9-1.41 2.21-2.58 1.32-1.17 2.95-2.01 1.64-.85 3.57-1.32 1.92-.46 4.12-.46 3.67 0 6.62 1.29 2.96 1.3 5.03 3.67 2.07 2.38 3.16 5.71 1.1 3.33 1.1 7.36 0 4.18-1.31 7.53-1.32 3.34-3.71 5.7t-5.78 3.62q-3.38 1.26-7.49 1.26-3.99 0-7.36-1.3-3.36-1.29-5.81-4.21-2.45-2.91-3.82-7.58-1.37-4.66-1.37-11.39 0-5.65 1.05-10.51 1.04-4.86 3.42-8.52 2.37-3.65 6.23-5.88 3.85-2.23 9.5-2.67l13.14-1 .47 4.6q.14 1.48-.43 2.51-.58 1.02-2.06 1.09m38.67 7.38h7.13l-20.13 47.09q-.39.94-1.02 1.42-.63.49-1.93.49h-6.62l6.91-14.83-14.94-34.17h7.81q1.04 0 1.64.51.59.5.88 1.15l7.85 19.15q.39.97.66 1.95.27.97.53 1.98.32-1.01.64-2 .33-.99.72-1.96l7.42-19.12q.29-.72.95-1.19.67-.47 1.5-.47m20.45 10.8v16.56q1.51 1.84 3.29 2.6 1.78.75 3.87.75 2.02 0 3.64-.75 1.62-.76 2.75-2.31t1.75-3.9q.61-2.36.61-5.57 0-3.24-.52-5.49-.53-2.25-1.5-3.65t-2.36-2.05q-1.38-.65-3.15-.65-2.77 0-4.71 1.17-1.95 1.17-3.67 3.29m-1.19-9.18.72 3.42q2.27-2.55 5.15-4.14 2.88-1.58 6.76-1.58 3.03 0 5.53 1.26t4.32 3.65q1.82 2.4 2.81 5.91t.99 8.04q0 4.14-1.12 7.67-1.11 3.53-3.18 6.12t-5.01 4.05q-2.93 1.46-6.57 1.46-3.09 0-5.29-.95-2.2-.96-3.92-2.65v15.12h-8.9v-49h5.44q1.73 0 2.27 1.62m58.17-1.62v6.59h-16.12v30.35h-8.9v-36.94z"/></svg>