<svg xmlns="http://www.w3.org/2000/svg" width="600" height="400" viewBox="0 0 600 400"><rect width="100%" height="100%" fill="#2d3748"/><path fill="#e2e8f0" d="M186.395 152.36v77.36h-14.5v-66.29h-33.6v66.29h-14.44v-77.36zm45.37 48.47 18.77 28.89h-12.73q-1.44 0-2.33-.75-.88-.75-1.47-1.71l-11.61-19.1q-.26.91-.61 1.71t-.78 1.5l-10.27 15.89q-.59.91-1.44 1.68-.86.78-2.14.78h-11.83l18.83-28.3-18.08-26.59h12.73q1.45 0 2.14.4.7.4 1.23 1.31l11.51 18.3q.59-1.82 1.66-3.59l9.25-14.44q1.18-1.98 3.05-1.98h12.15zm64.89-26h10.59l-29.9 69.98q-.59 1.39-1.53 2.11-.93.72-2.86.72h-9.84l10.27-22.04-22.2-50.77h11.61q1.55 0 2.43.75t1.31 1.71l11.66 28.46q.59 1.45.99 2.89.4 1.45.78 2.94.48-1.49.96-2.97.48-1.47 1.07-2.91l11.02-28.41q.43-1.07 1.42-1.77.99-.69 2.22-.69m40.61 19.26 9.36-15.78q.96-1.55 2.62-2.52 1.66-.96 3.53-.96h10.38l-12.78 20.38q-1.34 2.14-2.73 3.45t-3.37 2.06q2.67.81 4.38 2.38 1.72 1.58 3.11 3.99l12.84 22.63h-9.15q-3.48 0-5.41-1.18-1.92-1.17-3.26-3.37l-8.08-15.19q-1.07-1.98-2.75-2.94-1.69-.97-3.94-.97h-4.97v23.65h-13.22v-54.89h13.22v22.63h4.28q2.25 0 3.61-.83t2.33-2.54m45.1 1.87h24.93q0-2.57-.72-4.84-.73-2.27-2.17-3.99-1.44-1.71-3.66-2.7t-5.17-.99q-5.72 0-9.01 3.27-3.29 3.26-4.2 9.25m33.7 7.97h-33.97q.32 4.23 1.5 7.31 1.18 3.07 3.1 5.08 1.93 2 4.58 2.99 2.64.99 5.85.99t5.54-.74q2.33-.75 4.07-1.66t3.05-1.66 2.54-.75q1.66 0 2.46 1.23l3.8 4.81q-2.2 2.57-4.92 4.31-2.73 1.74-5.7 2.78-2.97 1.05-6.05 1.47-3.07.43-5.96.43-5.73 0-10.65-1.9t-8.56-5.61q-3.64-3.72-5.72-9.21-2.09-5.48-2.09-12.7 0-5.62 1.82-10.57t5.21-8.61q3.4-3.67 8.3-5.81 4.89-2.14 11.04-2.14 5.19 0 9.58 1.66t7.54 4.84q3.16 3.19 4.95 7.81 1.8 4.63 1.8 10.57 0 3-.65 4.04-.64 1.04-2.46 1.04m60.08-29.1v9.79h-19.58v45.1h-13.21v-45.1h-19.53v-9.79z"/></svg>