<svg xmlns="http://www.w3.org/2000/svg" width="600" height="400" viewBox="0 0 600 400"><rect width="100%" height="100%" fill="#718096"/><path fill="#e2e8f0" d="m180.96 196.51 24.25 39.04H189.6q-2.43 0-4.07-1.28-1.63-1.28-3.04-3.78l-19.71-31.1q-.77-1.34-1.63-2.21-.86-.86-1.86-1.41-.99-.54-2.24-.73-1.24-.19-2.84-.19H143.9v40.7h-17.21v-92.54h17.21v38.78h8.71q2.62 0 4.54-.9 1.92-.89 3.58-3.32l20.29-29.96q1.28-2.04 3.01-3.32t4.16-1.28h14.72l-25.15 37.12q-1.6 2.43-3.71 4.03-2.12 1.6-4.68 2.49 3.84 1.09 6.5 3.43 2.66 2.33 5.09 6.43m48.13-7.42v29.44q2.68 3.26 5.85 4.6 3.17 1.35 6.88 1.35 3.59 0 6.47-1.35 2.88-1.34 4.89-4.09 2.02-2.75 3.11-6.95 1.08-4.19 1.08-9.88 0-5.76-.92-9.76-.93-4-2.66-6.5t-4.19-3.65q-2.47-1.15-5.6-1.15-4.93 0-8.39 2.08-3.45 2.08-6.52 5.86m-2.12-16.32 1.28 6.08q4.04-4.55 9.16-7.36 5.12-2.82 12.03-2.82 5.37 0 9.82 2.24t7.68 6.5q3.23 4.25 4.99 10.49t1.76 14.31q0 7.36-1.98 13.63t-5.66 10.88-8.9 7.2-11.68 2.59q-5.5 0-9.41-1.7-3.9-1.69-6.97-4.7v26.88h-15.81v-87.1h9.66q3.07 0 4.03 2.88m105.92-2.88h12.68l-35.78 83.71q-.7 1.66-1.82 2.53-1.12.86-3.43.86h-11.77l12.28-26.37-26.56-60.73h13.89q1.86 0 2.91.89 1.06.9 1.57 2.05l13.95 34.05q.71 1.73 1.19 3.45.48 1.73.93 3.52.57-1.79 1.15-3.55.57-1.76 1.28-3.49l13.18-33.98q.51-1.28 1.7-2.11 1.18-.83 2.65-.83m69.96 0h9.6v65.66h-15.81v-38.34q0-1.47.16-3.23t.41-3.55q-1.28 2.94-2.81 5.18-.13.13-1.28 1.76-1.15 1.64-2.98 4.2-1.82 2.56-4.13 5.79l-4.67 6.56q-5.57 7.87-12.61 17.79-.89 1.34-2.33 2.62t-3.3 1.28h-9.66v-65.66h15.81v38.34q0 1.47-.16 3.23t-.42 3.55q1.41-3.14 2.82-5.18.06-.13 1.21-1.73t2.98-4.16q1.82-2.56 4.13-5.79 2.3-3.24 4.67-6.63 5.57-7.87 12.67-17.79.9-1.41 2.37-2.66 1.47-1.24 3.33-1.24m24.96 13.18-3.59-6.08q3.71-3.58 9.22-5.86 5.5-2.27 13.18-2.27 6.08 0 10.82 1.44 4.73 1.44 7.97 3.91 3.23 2.46 4.92 5.63 1.7 3.17 1.7 6.62 0 1.86-.54 3.87-.55 2.02-1.8 3.94-1.24 1.92-3.29 3.55t-5.06 2.79q5.38 2.04 8.67 6.01 3.3 3.97 3.3 9.79 0 4.8-2.21 8.52-2.21 3.71-5.85 6.3-3.65 2.59-8.36 3.94-4.7 1.34-9.69 1.34-2.82 0-6.05-.51t-6.5-1.76q-3.26-1.25-6.4-3.33-3.13-2.08-5.69-5.15l4.54-5.76q.96-1.47 2.88-1.47 1.47 0 2.82.92 1.34.93 3.1 2.05t4.19 2.05q2.44.93 6.08.93 5.96 0 9.03-2.69t3.07-6.72q0-3.97-3.17-6.21t-10.27-2.24h-7.42v-10.3h7.42q6.21 0 9.54-2.18 3.32-2.17 3.32-5.76 0-3.26-2.91-5.37-2.91-2.12-8.61-2.12-3.39 0-5.76.71-2.36.7-4.06 1.5t-2.85 1.51q-1.15.7-2.17.7-1.09 0-1.86-.42-.77-.41-1.66-1.82"/></svg>